<mxfile host="app.diagrams.net" modified="2024-01-22T13:56:27.987Z" agent="Mozilla/5.0 (Windows NT 10.0; Win64; x64) AppleWebKit/537.36 (KHTML, like Gecko) Chrome/120.0.0.0 Safari/537.36" version="22.1.21" etag="ELR9FCf4_ZJ29ofpgDhv" type="github">
  <diagram name="第 1 页" id="DNQHIrfPane--b0mPPib">
    <mxGraphModel>
      <root>
        <mxCell id="0" />
        <mxCell id="1" parent="0" />
      </root>
    </mxGraphModel>
  </diagram>
</mxfile>
